#define logoAtala_width 16
#define logoAtala_height 16
static unsigned short logoAtala_bits[] = {
   0x0000, 0x0000, 0x3f9c, 0x2a9c, 0x359c, 0x011c, 0x11dc, 0x391c, 0x39dc,
   0x111c, 0x001c, 0x3ffc, 0x3ffc, 0x3ffc, 0x0000, 0x0000 };
